:SAMPLES-PER-SECOND 30
:FULLY-SPECIFIED
:DEGREES
617
root  -9.00595 35.1812 -19.1495 6.20602 -51.748 -1.31161
RightUpLeg  -3.89077 -15.4405 -0.623306
RightLeg  9.84097 0.421098 0.0464398
RightFoot  5.4462 0.0165189 0.180601
RightToes  -23.9106 -0.104315 -0.207497
Spine  -4.72854 2.19944 -0.715584
Spine1  -9.35215 4.56911 -0.937425
HEad  -48.8171 -4.02198 1.49036
LeftShoulder1  -1.94126e-019 -3.10601e-018 -2.51263e-017
LeftArm  -73.4922 -49.0818 13.9865
LeftForeArm  39.9441 -33.5862 -6.13508
LeftHand  -0.188553 -2.97983 2.84614
RightShoulder  -4.96962e-017 0 -2.36833e-017
RightArm  -80.3756 56.5499 -9.72682
RightForeArm  59.4316 32.9252 4.10216
RightHand  -0.246477 0.702837 -4.78954
LeftUpLeg  -7.53542 -6.20558 -2.6799
LeftLeg  15.9254 9.42433 2.03281
LeftFoot  1.48983 -0.00398298 0.407532
LeftToes  1.9452 1.87998e-006 4.79886e-008
618
root  -9.12007 35.1403 -19.1614 6.18259 -52.0824 -1.18008
RightUpLeg  -4.26898 -14.6504 -0.414181
RightLeg  10.5515 -0.411697 -0.0486289
RightFoot  4.64244 0.017125 0.108552
RightToes  -22.3056 -0.094681 -0.195097
Spine  -4.70834 2.34284 -0.572065
Spine1  -9.29195 4.86881 -0.681797
HEad  -51.696 -3.29012 2.48844
LeftShoulder1  -1.94126e-019 -3.10601e-018 -2.51263e-017
LeftArm  -69.0417 -45.8172 10.867
LeftForeArm  37.367 -34.1168 -6.39971
LeftHand  -0.11839 -3.24021 1.83282
RightShoulder  -4.96962e-017 0 -2.36833e-017
RightArm  -80.1116 55.3159 -10.1229
RightForeArm  58.3284 30.3426 3.58154
RightHand  -0.363688 0.599087 -7.14076
LeftUpLeg  -7.22547 -5.59194 -2.49843
LeftLeg  15.5438 8.56464 1.78944
LeftFoot  1.23199 -0.00191942 0.340083
LeftToes  0.683507 1.87998e-006 4.79886e-008
619
root  -9.1839 35.0614 -19.2057 6.13065 -52.47 -0.921265
RightUpLeg  -4.63334 -14.002 -0.232785
RightLeg  10.938 -1.31833 -0.166835
RightFoot  3.45266 0.0142042 0.0615074
RightToes  -19.9447 -0.0811508 -0.176378
Spine  -4.7611 2.3482 -0.480596
Spine1  -9.37073 4.88133 -0.526725
HEad  -54.1324 -2.07141 3.83202
LeftShoulder1  -1.94126e-019 -3.10601e-018 -2.51263e-017
LeftArm  -64.5223 -41.4871 5.96682
LeftForeArm  33.5901 -35.5 -6.83675
LeftHand  -0.111553 -3.73227 1.67982
RightShoulder  -4.96962e-017 0 -2.36833e-017
RightArm  -77.3576 53.9994 -6.53981
RightForeArm  56.4404 29.9725 3.58802
RightHand  -0.435048 -0.825855 -11.0314
LeftUpLeg  -6.93784 -5.77381 -2.54263
LeftLeg  14.9778 8.83558 1.75522
LeftFoot  0.618544 -0.000429786 0.241201
LeftToes  0.685647 1.87998e-006 4.79886e-008
620
root  -9.23297 34.9665 -19.2585 5.91748 -52.6532 -0.575806
RightUpLeg  -4.54595 -14.0001 -0.26179
RightLeg  10.7235 -1.34217 -0.164735
RightFoot  2.29719 0.00898924 0.0791197
RightToes  -18.3591 -0.0725017 -0.1635
Spine  -4.82592 2.27995 -0.359461
Spine1  -9.45538 4.74431 -0.311678
HEad  -55.8722 -1.10645 4.6569
LeftShoulder1  -1.94126e-019 -3.10601e-018 -2.51263e-017
LeftArm  -59.1727 -36.302 -0.627021
LeftForeArm  32.7983 -37.8763 -7.4039
LeftHand  -0.307892 -3.48461 4.28121
RightShoulder  -4.96962e-017 0 -2.36833e-017
RightArm  -72.3709 52.0212 -0.483793
RightForeArm  53.434 31.4348 4.05168
RightHand  -0.412522 -1.98792 -13.8898
LeftUpLeg  -6.43604 -6.61369 -2.78072
LeftLeg  14.0896 9.99152 1.8233
LeftFoot  -0.145862 -6.95036e-005 0.106766
LeftToes  2.09882 1.87998e-006 4.79886e-008
621
root  -9.27223 34.8809 -19.3152 5.3544 -52.9245 -0.0602417
RightUpLeg  -4.18673 -13.8772 -0.514785
RightLeg  10.4201 -1.15426 -0.135312
RightFoot  1.23958 0.00449162 0.0980138
RightToes  -17.927 -0.0702065 -0.159949
Spine  -4.84315 2.21267 -0.179827
Spine1  -9.43517 4.60284 0.0233125
HEad  -57.014 -0.274651 4.78548
LeftShoulder1  -1.94126e-019 -3.10601e-018 -2.51263e-017
LeftArm  -52.9482 -30.0398 -7.89722
LeftForeArm  32.7807 -40.4658 -7.968
LeftHand  -0.556767 -1.76048 9.21914
RightShoulder  -4.96962e-017 0 -2.36833e-017
RightArm  -65.494 49.381 6.75637
RightForeArm  50.2254 33.3712 4.65866
RightHand  -0.379088 -2.68611 -15.961
LeftUpLeg  -5.65026 -7.73613 -3.2053
LeftLeg  13.0579 11.6042 1.90049
LeftFoot  -0.6519 -0.000998598 -0.0140217
LeftToes  3.06707 1.87998e-006 4.79886e-008
622
root  -9.30994 34.819 -19.3955 4.80804 -53.5379 0.414246
RightUpLeg  -3.85714 -13.5596 -0.691858
RightLeg  10.0078 -0.942459 -0.103398
RightFoot  0.487999 0.00258085 0.10595
RightToes  -17.5176 -0.0680569 -0.156569
Spine  -4.81039 2.1928 -0.029209
Spine1  -9.32678 4.52177 0.315347
HEad  -57.771 0.413295 4.91052
LeftShoulder1  -1.94126e-019 -3.10601e-018 -2.51263e-017
LeftArm  -47.1681 -22.7921 -14.7707
LeftForeArm  31.3524 -42.2332 -8.428
LeftHand  -0.624752 0.155359 13.914
RightShoulder  -4.96962e-017 0 -2.36833e-017
RightArm  -57.7777 45.5103 14.9685
RightForeArm  48.4506 35.6968 5.32576
RightHand  -0.343314 -3.14165 -17.3022
LeftUpLeg  -4.88465 -7.82727 -3.48113
LeftLeg  11.9784 12.3767 1.78857
LeftFoot  -0.724507 -0.00132055 -0.0473426
LeftToes  2.6613 1.87998e-006 4.79886e-008
623
root  -9.34311 34.7842 -19.525 4.61118 -54.3207 0.515564
RightUpLeg  -3.6587 -12.805 -0.513812
RightLeg  9.5257 -1.01911 -0.103172
RightFoot  0.164994 0.00202847 0.105892
RightToes  -17.1985 -0.0658746 -0.152959
Spine  -4.74174 2.17283 0.0554152
Spine1  -9.16599 4.42787 0.486832
HEad  -58.1963 0.885456 5.69206
LeftShoulder1  -1.94126e-019 -3.10601e-018 -2.51263e-017
LeftArm  -41.2353 -15.524 -20.6508
LeftForeArm  30.3062 -42.3538 -8.62872
LeftHand  -0.496631 1.99876 16.8864
RightShoulder  -4.96962e-017 0 -2.36833e-017
RightArm  -50.401 40.0459 23.7074
RightForeArm  48.214 37.3748 5.77881
RightHand  -0.289923 -3.57809 -18.002
LeftUpLeg  -4.41184 -6.8762 -3.33457
LeftLeg  11.2556 12.1495 1.60137
LeftFoot  -0.768975 -0.00178487 -0.0590793
LeftToes  1.0277 1.87998e-006 4.79886e-008
624
root  -9.35632 34.7839 -19.6732 4.37125 -54.9098 0.542816
RightUpLeg  -3.55826 -11.9896 -0.29562
RightLeg  9.36395 -1.29803 -0.12797
RightFoot  0.116427 0.00157714 0.109626
RightToes  -16.7021 -0.0633061 -0.149791
Spine  -4.44972 2.0409 0.141183
Spine1  -8.60055 4.10099 0.710632
HEad  -58.7203 1.27002 6.20086
LeftShoulder1  -1.94126e-019 -3.10601e-018 -2.51263e-017
LeftArm  -37.078 -7.64997 -26.3851
LeftForeArm  29.3238 -40.9902 -8.34501
LeftHand  -0.5122 1.55032 15.4218
RightShoulder  -4.96962e-017 0 -2.36833e-017
RightArm  -43.4303 33.8484 31.3337
RightForeArm  48.9287 36.9403 5.63226
RightHand  -0.214671 -4.06041 -17.8742
LeftUpLeg  -4.15969 -6.40757 -3.16456
LeftLeg  11.0316 12.2331 1.56402
LeftFoot  -0.65998 -0.00389011 -0.0356318
LeftToes  -0.120891 1.87998e-006 4.79886e-008
625
root  -9.35485 34.8004 -19.8138 4.00882 -55.1852 0.494751
RightUpLeg  -3.50768 -11.775 -0.144728
RightLeg  9.73499 -1.24987 -0.131394
RightFoot  0.0622389 0.000621816 0.119614
RightToes  -16.3346 -0.061196 -0.147796
Spine  -3.94021 1.97771 0.165405
Spine1  -7.63577 3.93969 0.828638
HEad  -59.4175 1.3023 6.61359
LeftShoulder1  -1.94126e-019 -3.10601e-018 -2.51263e-017
LeftArm  -35.1192 -0.681497 -32.6408
LeftForeArm  29.2352 -37.559 -7.54799
LeftHand  -0.539709 -0.309671 11.0883
RightShoulder  -4.96962e-017 0 -2.36833e-017
RightArm  -37.3344 26.3716 37.4874
RightForeArm  51.2104 34.5898 5.01115
RightHand  -0.32619 -3.08592 -16.0106
LeftUpLeg  -4.03625 -6.2221 -2.98842
LeftLeg  11.3723 12.3045 1.64678
LeftFoot  -0.609031 -0.0053304 -0.0182798
LeftToes  -0.626073 1.87998e-006 4.79886e-008
